<svg width="75" height="21" viewBox="0 0 75 21" fill="none" xmlns="http://www.w3.org/2000/svg">
<path d="M9.29169 20.1288C7.68943 20.1416 6.10882 19.7555 4.69027 19.0046C3.25144 18.2295 2.06883 17.0475 1.28801 15.6038C0.388574 13.9026 -0.0536695 11.9938 0.00519498 10.067C-0.0538539 8.13856 0.393483 6.22858 1.30196 4.53026C2.09061 3.08774 3.27722 1.9065 4.71816 1.12951C6.12755 0.380901 7.69858 -0.00527512 9.29169 0.00528996C10.5848 -0.00447978 11.8645 0.268817 13.0425 0.806294C14.161 1.30693 15.149 2.06214 15.9289 3.01257C16.6743 3.91126 17.157 5.00111 17.3233 6.16038H15.3711C15.2546 5.3248 14.8956 4.54257 14.3393 3.91194C13.7399 3.22058 12.991 2.67728 12.1502 2.32399C11.2468 1.93575 10.2737 1.7396 9.29169 1.74783C7.95051 1.71986 6.6264 2.05469 5.45718 2.71746C4.33449 3.38177 3.43577 4.37075 2.8776 5.55611C2.2289 6.96782 1.91389 8.51191 1.95731 10.067C1.91389 11.6222 2.2289 13.1662 2.8776 14.578C3.43577 15.7633 4.33449 16.7523 5.45718 17.4166C6.6264 18.0794 7.95051 18.4142 9.29169 18.3862C10.2965 18.3971 11.2929 18.2011 12.2199 17.8101C13.0606 17.4639 13.8066 16.9193 14.3951 16.2221C14.9356 15.5875 15.2755 14.8045 15.3711 13.9737H17.3233C17.1775 15.1284 16.7138 16.2188 15.9847 17.1215C15.2159 18.0777 14.2309 18.8343 13.1123 19.3278C11.9106 19.8682 10.6075 20.1414 9.29169 20.1288ZM27.3069 20.1288C25.4153 20.2224 23.5598 19.584 22.1199 18.3441C21.461 17.724 20.9297 16.9792 20.5565 16.1521C20.1833 15.3251 19.9754 14.432 19.9447 13.524H21.8131C21.8932 14.8768 22.4816 16.1481 23.4585 17.0793C24.5286 17.9944 25.9056 18.462 27.3069 18.3862C28.6158 18.4522 29.9151 18.1297 31.0439 17.4588C31.5008 17.1551 31.8704 16.7354 32.1152 16.242C32.3599 15.7486 32.4714 15.1989 32.4382 14.6482C32.4538 14.2914 32.399 13.935 32.2769 13.5997C32.1549 13.2644 31.968 12.9569 31.7271 12.6949C31.2276 12.1815 30.6234 11.7835 29.9562 11.5285C29.2498 11.2475 28.283 10.9289 27.056 10.5729C25.9106 10.2531 24.784 9.86837 23.6816 9.42061C22.8541 9.07134 22.1189 8.53244 21.5343 7.84671C20.914 7.07964 20.5962 6.10894 20.6419 5.12048C20.6245 4.16454 20.913 3.22837 21.4645 2.45046C22.0604 1.64507 22.8666 1.02234 23.7931 0.651715C24.8813 0.204458 26.0483 -0.0154601 27.2233 0.00528996C28.9247 -0.0607295 30.5928 0.493007 31.9223 1.56514C32.5329 2.07702 33.0342 2.70825 33.3961 3.42074C33.7579 4.13322 33.9728 4.91221 34.0278 5.71069H32.1593C32.1132 5.15171 31.9546 4.60805 31.6933 4.1128C31.432 3.61754 31.0735 3.18105 30.6395 2.82989C29.6616 2.07711 28.4526 1.69416 27.2233 1.74783C26.0192 1.67958 24.8242 1.99417 23.8071 2.6472C23.4106 2.92105 23.089 3.29125 22.8721 3.72355C22.6552 4.15586 22.5499 4.63631 22.5661 5.12048C22.5519 5.46322 22.6063 5.80535 22.7261 6.12645C22.8458 6.44755 23.0285 6.74107 23.2633 6.98949C23.7483 7.48049 24.3335 7.8593 24.9783 8.09965C25.8974 8.43759 26.8328 8.72838 27.781 8.97092C28.9668 9.26033 30.1315 9.63126 31.2669 10.0811C32.1315 10.4395 32.897 11.0036 33.4979 11.7253C34.1446 12.5558 34.4715 13.5939 34.4182 14.6482C34.4447 15.7075 34.1209 16.7457 33.4979 17.5993C32.8438 18.4542 31.9645 19.1067 30.9602 19.4824C29.7941 19.9292 28.5543 20.1486 27.3069 20.1288ZM38.2109 0.230133H40.8602L47.4974 17.4588L54.1346 0.230133H56.7839V19.9039H54.9154V3.1531L48.3898 19.9039H46.605L40.0794 3.1531V19.9039H38.2109V0.230133ZM67.8831 20.1288C65.9915 20.2224 64.1359 19.584 62.696 18.3441C62.0371 17.724 61.5059 16.9792 61.1326 16.1521C60.7594 15.3251 60.5515 14.432 60.5208 13.524H62.3893C62.4694 14.8768 63.0577 16.1481 64.0346 17.0793C65.1047 17.9944 66.4817 18.462 67.8831 18.3862C69.1919 18.4522 70.4912 18.1297 71.62 17.4588C72.077 17.1551 72.4465 16.7354 72.6913 16.242C72.9361 15.7486 73.0475 15.1989 73.0144 14.6482C73.03 14.2914 72.9751 13.935 72.8531 13.5997C72.731 13.2644 72.5441 12.9569 72.3032 12.6949C71.8037 12.1815 71.1995 11.7835 70.5324 11.5285C69.8259 11.2475 68.8591 10.9289 67.6321 10.5729C66.4867 10.2531 65.3601 9.86837 64.2577 9.42061C63.4303 9.07134 62.695 8.53244 62.1104 7.84671C61.4901 7.07964 61.1724 6.10894 61.218 5.12048C61.2007 4.16454 61.4891 3.22837 62.0407 2.45046C62.6366 1.64507 63.4427 1.02234 64.3693 0.651715C65.4574 0.204458 66.6244 -0.0154601 67.7994 0.00528996C69.5009 -0.0607295 71.169 0.493007 72.4984 1.56514C73.109 2.07702 73.6103 2.70825 73.9722 3.42074C74.3341 4.13322 74.549 4.91221 74.6039 5.71069H72.7355C72.6893 5.15171 72.5307 4.60805 72.2695 4.1128C72.0082 3.61754 71.6496 3.18105 71.2156 2.82989C70.2378 2.07711 69.0288 1.69416 67.7994 1.74783C66.5953 1.67958 65.4004 1.99417 64.3832 2.6472C63.9867 2.92105 63.6651 3.29125 63.4482 3.72355C63.2313 4.15586 63.1261 4.63631 63.1422 5.12048C63.128 5.46322 63.1824 5.80535 63.3022 6.12645C63.422 6.44755 63.6047 6.74107 63.8394 6.98949C64.3245 7.48049 64.9097 7.8593 65.5545 8.09965C66.4735 8.43759 67.4089 8.72838 68.3572 8.97092C69.5429 9.26033 70.7076 9.63126 71.8431 10.0811C72.7076 10.4395 73.4731 11.0036 74.0741 11.7253C74.7207 12.5558 75.0476 13.5939 74.9944 14.6482C75.0208 15.7075 74.6971 16.7457 74.0741 17.5993C73.4199 18.4542 72.5406 19.1067 71.5363 19.4824C70.3702 19.9292 69.1305 20.1486 67.8831 20.1288Z" fill="white"/>
</svg>
