<svg width="99" height="20" viewBox="0 0 99 20" fill="none" xmlns="http://www.w3.org/2000/svg">
<path d="M99 9.97867V19.9552H93.0611V15.9641H76.2308C75.4506 15.9641 74.678 15.8093 73.9572 15.5085C73.2363 15.2076 72.5814 14.7666 72.0297 14.2106C71.478 13.6546 71.0404 12.9945 70.7418 12.268C70.4433 11.5415 70.2897 10.7629 70.2898 9.97657V0H76.2308V8.48093C76.2308 8.8776 76.3872 9.25802 76.6655 9.53851C76.9438 9.81899 77.3213 9.97657 77.7149 9.97657L99 9.97867ZM47.5171 8.48303V0H10.8906C5.67979 0 1.41179 2.63839 1.02479 5.98748C0.980555 6.31859 0.980555 6.65418 1.02479 6.98528C1.41387 10.3323 5.67979 12.9707 10.8906 12.9707H31.1864C31.3145 12.9755 31.4357 13.0302 31.5246 13.1232C31.6136 13.2162 31.6632 13.3404 31.6632 13.4696C31.6632 13.5987 31.6136 13.7229 31.5246 13.8159C31.4357 13.9089 31.3145 13.9636 31.1864 13.9685H0V19.9559H30.6917C35.9026 19.9559 40.1706 17.3176 40.5576 13.9685C40.5995 13.6372 40.5995 13.3019 40.5576 12.9707C40.1678 9.62367 35.9026 6.98528 30.6917 6.98528H10.3952C10.2672 6.98044 10.1459 6.92577 10.057 6.83273C9.96809 6.7397 9.91841 6.61555 9.91841 6.48638C9.91841 6.35721 9.96809 6.23307 10.057 6.14003C10.1459 6.047 10.2672 5.99232 10.3952 5.98748H41.5803V9.97867C41.5802 10.765 41.7338 11.5436 42.0323 12.2701C42.3308 12.9966 42.7685 13.6567 43.3201 14.2127C43.8718 14.7687 44.5268 15.2097 45.2476 15.5106C45.9685 15.8114 46.7411 15.9662 47.5213 15.9662H64.3515V19.9573H70.2905V9.97867H49.0053C48.6117 9.97867 48.2343 9.8211 47.956 9.54061C47.6776 9.26012 47.5213 8.8797 47.5213 8.48303" fill="white"/>
</svg>
