<svg width="200" height="26" viewBox="0 0 200 26" fill="none" xmlns="http://www.w3.org/2000/svg">
<g clip-path="url(#clip0_1_27)">
<path d="M86.1073 13.3757H61.0157C58.3076 13.3757 58.3076 12.1069 58.3076 11.5044V0.0354417H50.6877V0.0567067H16.2633C7.27867 0.0567067 1.47137 3.33152 1.47137 8.40676C1.47137 13.482 7.12229 16.7568 14.9056 16.7568H32.7469H40.5445C40.9639 16.7568 41.2979 17.0971 41.2979 17.5082C41.2979 17.9193 40.9567 18.2595 40.5445 18.2595H36.6777C36.6137 18.2595 36.5497 18.2595 36.4858 18.2595H0V25.8582H36.4858C44.2691 25.8582 49.92 22.3495 49.92 17.5082C49.92 12.6668 44.2691 9.15812 36.4858 9.15812H14.9056C14.9056 9.15812 14.8843 9.15812 14.8772 9.15812H11.117C10.719 9.15812 10.3991 8.84624 10.3707 8.45638C10.3707 8.45638 10.3636 8.45638 10.3565 8.45638C10.3565 8.45638 10.3636 8.45638 10.3707 8.45638C10.3707 8.4422 10.3636 8.42803 10.3636 8.41385C10.3636 7.99564 10.7048 7.66249 11.117 7.66249H50.6948V11.5115C50.6948 17.09 54.9383 20.9815 61.0157 20.9815H78.4945V25.8724H86.1144V19.8615V13.3899L86.1073 13.3757ZM93.7271 11.4689V0H86.1073V11.4689C86.1073 17.0474 90.3508 20.9389 96.4282 20.9389H113.9V25.8299H121.52V13.3402H96.4282C93.72 13.3402 93.72 12.0714 93.72 11.4689H93.7271Z" fill="white"/>
<path d="M129.502 13.4541H138.266V16.1477H132.665V18.2033H137.072V20.8968H132.665V23.1651H138.458V25.8587H129.502V13.4541Z" fill="white"/>
<path d="M140.505 13.4541H143.832L148.218 20.8614V13.4541H151.381V25.8587H148.054L143.668 18.4514V25.8587H140.505V13.4541Z" fill="white"/>
<path d="M153.989 13.4541H162.754V16.1477H157.152V18.2033H161.559V20.8968H157.152V23.1651H162.946V25.8587H153.989V13.4541Z" fill="white"/>
<path d="M164.971 13.4541H170.445C171.333 13.4541 172.101 13.6242 172.755 13.9645C173.409 14.3047 173.899 14.7796 174.24 15.3892C174.574 15.9988 174.745 16.6935 174.745 17.4732C174.745 18.6073 174.269 19.4296 173.323 19.9399C173.7 20.2093 174.006 20.5495 174.24 20.9465C174.468 21.3505 174.61 21.7971 174.66 22.2933L175.051 25.8587H171.873L171.482 22.754C171.433 22.4138 171.291 22.1302 171.049 21.9247C170.807 21.712 170.516 21.6057 170.167 21.6057H168.163V25.8587H164.979V13.4541H164.971ZM170.231 18.9121C170.715 18.9121 171.084 18.7774 171.34 18.501C171.596 18.2316 171.724 17.8843 171.724 17.4732C171.724 17.0621 171.596 16.7147 171.34 16.4454C171.084 16.176 170.715 16.0413 170.231 16.0413H168.156V18.9121H170.231Z" fill="white"/>
<path d="M179.145 25.2766C178.199 24.7946 177.446 24.0716 176.877 23.1218C176.309 22.1719 176.024 21.0165 176.024 19.6556C176.024 18.2946 176.323 17.1392 176.913 16.1823C177.503 15.2254 178.292 14.5095 179.266 14.0274C180.24 13.5454 181.313 13.3115 182.471 13.3115C183.538 13.3115 184.49 13.51 185.322 13.8999C186.161 14.2897 186.814 14.8426 187.298 15.5514C187.781 16.2603 188.037 17.0683 188.073 17.9756H184.981C184.895 17.359 184.632 16.877 184.192 16.5296C183.751 16.1823 183.161 16.0051 182.443 16.0051C181.803 16.0051 181.22 16.1539 180.702 16.4446C180.183 16.7423 179.77 17.1605 179.465 17.7134C179.166 18.2592 179.01 18.9113 179.01 19.6556C179.01 20.3999 179.159 21.0591 179.465 21.6403C179.77 22.2216 180.176 22.6681 180.694 22.9942C181.206 23.3202 181.775 23.4833 182.393 23.4833C182.82 23.4833 183.246 23.377 183.673 23.1714C184.099 22.9658 184.447 22.7107 184.71 22.3988C184.973 22.0869 185.109 21.7963 185.109 21.5127C185.109 21.4206 185.08 21.3426 185.03 21.2788C184.973 21.2221 184.91 21.1937 184.824 21.1937H182.606V18.89H186.104C186.694 18.89 187.17 19.0885 187.518 19.4855C187.866 19.8824 188.044 20.3361 188.044 20.8393V25.8579H185.272V24.0645C185.094 24.6458 184.725 25.1136 184.17 25.468C183.616 25.8224 182.962 25.9996 182.216 25.9996C181.114 25.9996 180.09 25.7586 179.152 25.2695L179.145 25.2766Z" fill="white"/>
<path d="M192.657 20.7551L188.499 13.4541H191.84L194.242 17.8134L196.673 13.4541H199.993L195.835 20.7551V25.8587H192.65V20.7551H192.657Z" fill="white"/>
</g>
<defs>
<clipPath id="clip0_1_27">
<rect width="200" height="26" fill="white"/>
</clipPath>
</defs>
</svg>
